<mxfile host="app.diagrams.net" modified="2024-04-09T14:07:10.829Z" agent="Mozilla/5.0 (Windows NT 10.0; Win64; x64) AppleWebKit/537.36 (KHTML, like Gecko) Chrome/123.0.0.0 Safari/537.36" etag="gdFHd4AqEQdSEawyFvBK" version="24.2.3" type="device">
  <diagram name="Pagina-1" id="topDx26LdfJjVvMaaXT0">
    <mxGraphModel dx="723" dy="261" grid="1" gridSize="10" guides="1" tooltips="1" connect="1" arrows="1" fold="1" page="1" pageScale="1" pageWidth="1500" pageHeight="500" math="1" shadow="0">
      <root>
        <mxCell id="0" />
        <mxCell id="1" parent="0" />
        <mxCell id="mt_roEaltHaYmjqInT3p-1" value="$$f_1$$" style="rounded=1;whiteSpace=wrap;html=1;fontSize=16;strokeWidth=3;" parent="1" vertex="1">
          <mxGeometry x="690" y="310" width="120" height="60" as="geometry" />
        </mxCell>
        <mxCell id="mt_roEaltHaYmjqInT3p-2" value="$$f_2$$" style="rounded=1;whiteSpace=wrap;html=1;fontSize=16;strokeWidth=3;" parent="1" vertex="1">
          <mxGeometry x="880" y="310" width="120" height="60" as="geometry" />
        </mxCell>
        <mxCell id="mt_roEaltHaYmjqInT3p-3" value="$$x$$" style="text;html=1;strokeColor=none;fillColor=none;align=center;verticalAlign=middle;whiteSpace=wrap;rounded=0;fontSize=16;" parent="1" vertex="1">
          <mxGeometry x="570" y="325" width="60" height="30" as="geometry" />
        </mxCell>
        <mxCell id="mt_roEaltHaYmjqInT3p-5" value="$$+$$" style="ellipse;whiteSpace=wrap;html=1;aspect=fixed;fontSize=16;strokeColor=default;strokeWidth=2;" parent="1" vertex="1">
          <mxGeometry x="1070" y="320" width="40" height="40" as="geometry" />
        </mxCell>
        <mxCell id="mt_roEaltHaYmjqInT3p-6" value="" style="endArrow=classic;html=1;rounded=0;exitX=1;exitY=0.5;exitDx=0;exitDy=0;entryX=0;entryY=0.5;entryDx=0;entryDy=0;strokeWidth=3;endFill=1;" parent="1" source="mt_roEaltHaYmjqInT3p-3" target="mt_roEaltHaYmjqInT3p-1" edge="1">
          <mxGeometry width="50" height="50" relative="1" as="geometry">
            <mxPoint x="720" y="370" as="sourcePoint" />
            <mxPoint x="770" y="320" as="targetPoint" />
          </mxGeometry>
        </mxCell>
        <mxCell id="mt_roEaltHaYmjqInT3p-7" value="" style="endArrow=classic;html=1;rounded=0;exitX=1;exitY=0.5;exitDx=0;exitDy=0;entryX=0;entryY=0.5;entryDx=0;entryDy=0;strokeWidth=3;endFill=1;" parent="1" source="mt_roEaltHaYmjqInT3p-1" target="mt_roEaltHaYmjqInT3p-2" edge="1">
          <mxGeometry width="50" height="50" relative="1" as="geometry">
            <mxPoint x="640" y="350" as="sourcePoint" />
            <mxPoint x="700" y="350" as="targetPoint" />
          </mxGeometry>
        </mxCell>
        <mxCell id="mt_roEaltHaYmjqInT3p-8" value="" style="endArrow=classic;html=1;rounded=0;exitX=1;exitY=0.5;exitDx=0;exitDy=0;entryX=0;entryY=0.5;entryDx=0;entryDy=0;strokeWidth=3;endFill=1;" parent="1" source="mt_roEaltHaYmjqInT3p-2" target="mt_roEaltHaYmjqInT3p-5" edge="1">
          <mxGeometry width="50" height="50" relative="1" as="geometry">
            <mxPoint x="820" y="350" as="sourcePoint" />
            <mxPoint x="890" y="350" as="targetPoint" />
          </mxGeometry>
        </mxCell>
        <mxCell id="mt_roEaltHaYmjqInT3p-9" value="" style="endArrow=classic;html=1;rounded=0;edgeStyle=orthogonalEdgeStyle;exitX=0.75;exitY=0;exitDx=0;exitDy=0;fillColor=#f8cecc;strokeColor=#b85450;strokeWidth=3;endFill=1;" parent="1" source="mt_roEaltHaYmjqInT3p-3" edge="1">
          <mxGeometry width="50" height="50" relative="1" as="geometry">
            <mxPoint x="680" y="250" as="sourcePoint" />
            <mxPoint x="940" y="310" as="targetPoint" />
            <Array as="points">
              <mxPoint x="615" y="290" />
              <mxPoint x="940" y="290" />
            </Array>
          </mxGeometry>
        </mxCell>
        <mxCell id="mt_roEaltHaYmjqInT3p-13" value="" style="endArrow=classic;html=1;rounded=0;edgeStyle=orthogonalEdgeStyle;exitX=0.5;exitY=1;exitDx=0;exitDy=0;entryX=0.5;entryY=1;entryDx=0;entryDy=0;fillColor=#dae8fc;strokeColor=#6c8ebf;strokeWidth=3;endFill=1;" parent="1" source="mt_roEaltHaYmjqInT3p-1" target="mt_roEaltHaYmjqInT3p-5" edge="1">
          <mxGeometry width="50" height="50" relative="1" as="geometry">
            <mxPoint x="610" y="335" as="sourcePoint" />
            <mxPoint x="950" y="320" as="targetPoint" />
            <Array as="points">
              <mxPoint x="750" y="390" />
              <mxPoint x="1090" y="390" />
            </Array>
          </mxGeometry>
        </mxCell>
        <mxCell id="mt_roEaltHaYmjqInT3p-14" value="" style="endArrow=classic;html=1;rounded=0;edgeStyle=orthogonalEdgeStyle;exitX=0.5;exitY=0;exitDx=0;exitDy=0;entryX=0.5;entryY=0;entryDx=0;entryDy=0;fillColor=#d5e8d4;strokeColor=#82b366;strokeWidth=3;endFill=1;dashed=1;" parent="1" source="mt_roEaltHaYmjqInT3p-3" target="mt_roEaltHaYmjqInT3p-5" edge="1">
          <mxGeometry width="50" height="50" relative="1" as="geometry">
            <mxPoint x="625" y="335" as="sourcePoint" />
            <mxPoint x="950" y="320" as="targetPoint" />
            <Array as="points">
              <mxPoint x="600" y="270" />
              <mxPoint x="1090" y="270" />
            </Array>
          </mxGeometry>
        </mxCell>
      </root>
    </mxGraphModel>
  </diagram>
</mxfile>
